<svg width="83" height="71" viewBox="0 0 83 71" fill="none" xmlns="http://www.w3.org/2000/svg">
<g clip-path="url(#clip0_1_2542)">
<path d="M41.19 70.78C52.1143 70.78 62.5911 67.0514 70.3157 60.4145C78.0404 53.7776 82.38 44.776 82.38 35.39C82.38 26.004 78.0404 17.0024 70.3157 10.3655C62.5911 3.72858 52.1143 0 41.19 0C30.2657 0 19.7889 3.72858 12.0643 10.3655C4.33965 17.0024 0 26.004 0 35.39C0 44.776 4.33965 53.7776 12.0643 60.4145C19.7889 67.0514 30.2657 70.78 41.19 70.78ZM26.4034 44.9978C29.2835 47.8594 34.207 50.8731 41.19 50.8731C48.173 50.8731 53.0965 47.8594 55.9766 44.9978C56.9098 44.0716 58.5349 43.9748 59.6129 44.7766C60.6909 45.5784 60.8035 46.9747 59.8703 47.9009C56.2823 51.4399 50.0555 55.2969 41.19 55.2969C32.3245 55.2969 26.0977 51.4399 22.5097 47.9009C21.5765 46.9747 21.6891 45.5784 22.7671 44.7766C23.8451 43.9748 25.4702 44.0716 26.4034 44.9978ZM23.2337 28.7544C23.2337 27.5811 23.7762 26.4559 24.7418 25.6263C25.7073 24.7967 27.0169 24.3306 28.3825 24.3306C29.748 24.3306 31.0576 24.7967 32.0232 25.6263C32.9888 26.4559 33.5312 27.5811 33.5312 28.7544C33.5312 29.9276 32.9888 31.0528 32.0232 31.8824C31.0576 32.7121 29.748 33.1781 28.3825 33.1781C27.0169 33.1781 25.7073 32.7121 24.7418 31.8824C23.7762 31.0528 23.2337 29.9276 23.2337 28.7544ZM54.1262 24.3306C55.4918 24.3306 56.8014 24.7967 57.7669 25.6263C58.7325 26.4559 59.275 27.5811 59.275 28.7544C59.275 29.9276 58.7325 31.0528 57.7669 31.8824C56.8014 32.7121 55.4918 33.1781 54.1262 33.1781C52.7607 33.1781 51.4511 32.7121 50.4855 31.8824C49.5199 31.0528 48.9775 29.9276 48.9775 28.7544C48.9775 27.5811 49.5199 26.4559 50.4855 25.6263C51.4511 24.7967 52.7607 24.3306 54.1262 24.3306Z" fill="#0E6BA8"/>
</g>
<defs>
<clipPath id="clip0_1_2542">
<rect width="82.38" height="70.78" fill="white"/>
</clipPath>
</defs>
</svg>
