<svg width="89" height="90" viewBox="0 0 89 90" fill="none" xmlns="http://www.w3.org/2000/svg">
<path d="M46.6625 0.711845L86.714 28.8341C88.8556 30.3457 89.6344 33.7731 88.4384 36.4798C87.2425 39.1866 84.5306 40.1709 82.389 38.6593L44.507 12.0662L6.611 38.6769C4.46936 40.1885 1.75754 39.2042 0.561558 36.4974C-0.634424 33.7906 0.144355 30.3632 2.286 28.8517L42.3514 0.711845C43.7004 -0.237282 45.3275 -0.237282 46.6764 0.711845H46.6625ZM44.507 28.131C45.9823 28.131 47.3972 28.8718 48.4404 30.1902C49.4836 31.5087 50.0697 33.297 50.0697 35.1616C50.0697 37.0262 49.4836 38.8145 48.4404 40.133C47.3972 41.4515 45.9823 42.1922 44.507 42.1922C43.0316 42.1922 41.6167 41.4515 40.5735 40.133C39.5303 38.8145 38.9442 37.0262 38.9442 35.1616C38.9442 33.297 39.5303 31.5087 40.5735 30.1902C41.6167 28.8718 43.0316 28.131 44.507 28.131ZM20.031 45.0044C21.5064 45.0044 22.9213 45.7451 23.9645 47.0636C25.0077 48.3821 25.5937 50.1703 25.5937 52.035C25.5937 53.8996 25.0077 55.6878 23.9645 57.0063C22.9213 58.3248 21.5064 59.0655 20.031 59.0655C18.5557 59.0655 17.1408 58.3248 16.0976 57.0063C15.0544 55.6878 14.4683 53.8996 14.4683 52.035C14.4683 50.1703 15.0544 48.3821 16.0976 47.0636C17.1408 45.7451 18.5557 45.0044 20.031 45.0044ZM63.4202 52.035C63.4202 50.1703 64.0062 48.3821 65.0494 47.0636C66.0927 45.7451 67.5075 45.0044 68.9829 45.0044C70.4582 45.0044 71.8731 45.7451 72.9163 47.0636C73.9595 48.3821 74.5456 50.1703 74.5456 52.035C74.5456 53.8996 73.9595 55.6878 72.9163 57.0063C71.8731 58.3248 70.4582 59.0655 68.9829 59.0655C67.5075 59.0655 66.0927 58.3248 65.0494 57.0063C64.0062 55.6878 63.4202 53.8996 63.4202 52.035ZM31.5598 86.3793L27.8188 77.6086V84.3755C27.8188 87.4866 25.8302 90 23.3687 90H16.6934C14.2319 90 12.2432 87.4866 12.2432 84.3755V77.6086L8.50232 86.3793C7.6262 88.4357 5.60972 89.1915 3.98262 88.1017C2.35553 87.012 1.75754 84.4459 2.61976 82.3894L7.89043 70.0332C10.0182 65.0239 14.1624 61.8953 18.6682 61.8953H21.38C23.6468 61.8953 25.8163 62.6863 27.6937 64.1099L32.3663 53.1598C34.4941 48.1506 38.6383 45.022 43.1441 45.022H45.8559C50.3617 45.022 54.492 48.1506 56.6337 53.1598L61.3063 64.1099C63.1837 62.6863 65.3532 61.8953 67.62 61.8953H70.3318C74.8376 61.8953 78.9679 65.0239 81.1096 70.0332L86.3802 82.3894C87.2564 84.4459 86.6445 86.9944 85.0174 88.1017C83.3903 89.2091 81.3738 88.4357 80.4977 86.3793L76.7707 77.6086V84.3755C76.7707 87.4866 74.782 90 72.3205 90H65.6452C63.1838 90 61.1951 87.4866 61.1951 84.3755V77.6086L57.4542 86.3793C56.578 88.4357 54.5616 89.1915 52.9345 88.1017C51.3074 87.012 50.7094 84.4459 51.5716 82.3894L56.6198 70.5253C56.3833 70.2265 56.1747 69.8926 56.0218 69.5059L52.2947 60.7353V70.3144C52.2947 73.4254 50.3061 75.9389 47.8446 75.9389H41.1693C38.7078 75.9389 36.7192 73.4254 36.7192 70.3144V60.7353L32.9782 69.5059C32.8114 69.8926 32.6167 70.2265 32.3803 70.5253L37.4284 82.3894C38.3045 84.4459 37.6926 86.9944 36.0655 88.1017C34.4384 89.2091 32.422 88.4357 31.5458 86.3793H31.5598Z" fill="#0E6BA8"/>
</svg>
