<svg width="90" height="80" viewBox="0 0 90 80" fill="none" xmlns="http://www.w3.org/2000/svg">
<path d="M89.9764 39.9141C89.9764 42.726 87.6325 44.9287 84.976 44.9287H79.9756L80.0849 69.9551C80.1162 75.5009 75.6314 80 70.0841 80H20.0173C14.5012 80 10.0165 75.5165 10.0165 70.002V44.9287H5.00043C2.18769 44.9287 0 42.7417 0 39.9141C0 38.5081 0.46879 37.2584 1.56263 36.1648L41.6285 1.24976C42.7224 0.156219 43.9725 0 45.0663 0C46.1602 0 47.4103 0.312439 48.3479 1.09354L65.0055 15.7313V9.99805C65.0055 7.23296 67.2401 4.99902 70.006 4.99902H75.0064C77.7722 4.99902 80.0068 7.23296 80.0068 9.99805V28.9006L88.2575 36.1492C89.5076 37.2427 90.1327 38.4925 89.9764 39.8985V39.9141ZM38.7533 29.9941C36.675 29.9941 35.003 31.6657 35.003 33.7434V46.241C35.003 48.3187 36.675 49.9902 38.7533 49.9902H51.2544C53.3327 49.9902 55.0047 48.3187 55.0047 46.241V33.7434C55.0047 31.6657 53.3327 29.9941 51.2544 29.9941H38.7533Z" fill="#0E6BA8"/>
</svg>
